<svg xmlns="http://www.w3.org/2000/svg" viewBox="0 0 180.6 218.8" fill="rgb(255,255,255">
  <path d="M172 127.5V32.6c0-1.4-.7-2.8-1.9-3.6s-2.7-.9-4-.3l-38.8 16.8v-27c0-1.4-.7-2.8-1.9-3.6s-2.7-.9-4-.4L82.6 31.3v-27c0-1.4-.7-2.8-1.9-3.6s-2.7-.9-4-.4L11 28.7c-1.6.7-2.6 2.2-2.6 3.9v94.9c0 1.4.7 2.8 1.9 3.6.7.5 1.5.7 2.3.7.6 0 1.1-.1 1.7-.3l38.8-16.8v27c0 1.4.7 2.8 1.9 3.6.7.5 1.5.7 2.3.7.6 0 1.1-.1 1.7-.3l38.8-16.8v27c0 1.4.7 2.8 1.9 3.6.7.5 1.5.7 2.3.7.6 0 1.1-.1 1.7-.3l65.6-28.4c1.7-.7 2.7-2.3 2.7-4m-8.5-2.8-57.1 24.7v-24.2l18.3-7.9c1.6-.7 2.6-2.2 2.6-3.9V64l-8.5 3.7v42.8l-12.4 5.4-8.5 3.7-36.2 15.6V111l18.3-7.9c1.6-.7 2.6-2.2 2.6-3.9V49.8l-8.5 3.7v42.8l-12.4 5.4-8.5 3.7L17 121V35.4l57.1-24.7V35l-18.3 7.9c-1.6.7-2.6 2.2-2.6 3.9v49.3l8.5-3.7V49.6l12.4-5.4 8.5-3.7 36.2-15.6v24.2L100.5 57c-1.6.7-2.6 2.2-2.6 3.9v49.3l8.5-3.7V63.8l12.4-5.4 8.5-3.7 36.2-15.6zM44.2 187.4c-2.3-7.1-9.4-11.4-20.1-11.4-15 0-24.1 8.7-24.1 21.4 0 13 9.1 21.5 23 21.5 16 0 22.9-8.6 22.9-20.5 0-1.2 0-2.5-.3-3.8H23.2v7h12.5c.2 5.6-5.2 9.4-11.9 9.4-8.6 0-13-5.3-13-13.6s4.5-13.8 12.3-13.8c4.6 0 8.4 1.9 9.9 6.2zM74.6 210.9c-7.6 0-12.4-5.3-12.4-13.5 0-8.3 4.8-13.5 12.4-13.5S87 189.1 87 197.4s-4.8 13.5-12.4 13.5m0 7.9c14 0 23.1-8.3 23.1-21.4S88.6 176 74.6 176s-23.1 8.3-23.1 21.4c.1 13.1 9.2 21.4 23.1 21.4M125 210.7h-11.2v-10.3h11.3c4.2 0 6.3 2 6.3 5.1 0 2.9-2 5.2-6.4 5.2m-11.2-26.5h10.6c4.3 0 5.9 2.1 5.9 4.6 0 2.6-1.4 4.9-5.9 4.9h-10.6zm19.6 12.3c5-1.2 7.6-4.7 7.6-9 0-5.9-4.3-10.3-13.8-10.3h-23.6v40.5h24.1c9.9 0 14.4-5.1 14.4-11.5 0-5.3-3-8.8-8.7-9.7M149.2 177.2v40.5h31.4v-8.2h-21.2v-32.3z"/>
</svg>