<?xml version="1.0" encoding="utf-8"?>
<!-- Generator: Adobe Illustrator 25.4.1, SVG Export Plug-In . SVG Version: 6.00 Build 0)  -->
<svg version="1.1" id="Capa_1" xmlns="http://www.w3.org/2000/svg" xmlns:xlink="http://www.w3.org/1999/xlink" x="0px" y="0px"
	 viewBox="0 0 180.6 218.8" style="enable-background:new 0 0 180.6 218.8;" xml:space="preserve">
<g>
	<path d="M172,127.5V32.6c0-1.4-0.7-2.8-1.9-3.6c-1.2-0.8-2.7-0.9-4-0.3l-38.8,16.8v-27c0-1.4-0.7-2.8-1.9-3.6
		c-1.2-0.8-2.7-0.9-4-0.4L82.6,31.3v-27c0-1.4-0.7-2.8-1.9-3.6c-1.2-0.8-2.7-0.9-4-0.4L11,28.7c-1.6,0.7-2.6,2.2-2.6,3.9v94.9
		c0,1.4,0.7,2.8,1.9,3.6c0.7,0.5,1.5,0.7,2.3,0.7c0.6,0,1.1-0.1,1.7-0.3l38.8-16.8v27c0,1.4,0.7,2.8,1.9,3.6
		c0.7,0.5,1.5,0.7,2.3,0.7c0.6,0,1.1-0.1,1.7-0.3l38.8-16.8v27c0,1.4,0.7,2.8,1.9,3.6c0.7,0.5,1.5,0.7,2.3,0.7
		c0.6,0,1.1-0.1,1.7-0.3l65.6-28.4C171,130.8,172,129.2,172,127.5z M163.5,124.7l-57.1,24.7v-24.2l18.3-7.9c1.6-0.7,2.6-2.2,2.6-3.9
		V64l-8.5,3.7v42.8l-12.4,5.4l-8.5,3.7l-36.2,15.6V111l18.3-7.9c1.6-0.7,2.6-2.2,2.6-3.9V49.8l-8.5,3.7v42.8l-12.4,5.4l-8.5,3.7
		L17,121V35.4l57.1-24.7V35l-18.3,7.9c-1.6,0.7-2.6,2.2-2.6,3.9v49.3l8.5-3.7V49.6l12.4-5.4l8.5-3.7l36.2-15.6v24.2l-18.3,7.9
		c-1.6,0.7-2.6,2.2-2.6,3.9v49.3l8.5-3.7V63.8l12.4-5.4l8.5-3.7l36.2-15.6V124.7z"/>
	<g>
		<g>
			<path d="M44.2,187.4c-2.3-7.1-9.4-11.4-20.1-11.4C9.1,176,0,184.7,0,197.4c0,13,9.1,21.5,23,21.5c16,0,22.9-8.6,22.9-20.5
				c0-1.2,0-2.5-0.3-3.8H23.2v7h12.5c0.2,5.6-5.2,9.4-11.9,9.4c-8.6,0-13-5.3-13-13.6c0-8.3,4.5-13.8,12.3-13.8
				c4.6,0,8.4,1.9,9.9,6.2L44.2,187.4z"/>
			<path d="M74.6,210.9c-7.6,0-12.4-5.3-12.4-13.5c0-8.3,4.8-13.5,12.4-13.5c7.6,0,12.4,5.2,12.4,13.5
				C87,205.7,82.2,210.9,74.6,210.9z M74.6,218.8c14,0,23.1-8.3,23.1-21.4c0-13.1-9.1-21.4-23.1-21.4s-23.1,8.3-23.1,21.4
				C51.6,210.5,60.7,218.8,74.6,218.8z"/>
			<path d="M125,210.7h-11.2v-10.3h11.3c4.2,0,6.3,2,6.3,5.1C131.4,208.4,129.4,210.7,125,210.7z M113.8,184.2h10.6
				c4.3,0,5.9,2.1,5.9,4.6c0,2.6-1.4,4.9-5.9,4.9h-10.6V184.2z M133.4,196.5c5-1.2,7.6-4.7,7.6-9c0-5.9-4.3-10.3-13.8-10.3h-23.6
				v40.5h24.1c9.9,0,14.4-5.1,14.4-11.5C142.1,200.9,139.1,197.4,133.4,196.5z"/>
			<polygon points="149.2,177.2 149.2,217.7 180.6,217.7 180.6,209.5 159.4,209.5 159.4,177.2 			"/>
		</g>
	</g>
</g>
</svg>
