<?xml version="1.0" encoding="utf-8"?>
<svg version="1.1" id="Capa_1" x="0px" y="0px" viewBox="0 0 180 180" style="enable-background:new 0 0 180.6 218.8;" xmlns="http://www.w3.org/2000/svg">
  <g transform="matrix(1, 0, 0, 1, 0, 9)">
    <path d="M172,127.5V32.6c0-1.4-0.7-2.8-1.9-3.6c-1.2-0.8-2.7-0.9-4-0.3l-38.8,16.8v-27c0-1.4-0.7-2.8-1.9-3.6 c-1.2-0.8-2.7-0.9-4-0.4L82.6,31.3v-27c0-1.4-0.7-2.8-1.9-3.6c-1.2-0.8-2.7-0.9-4-0.4L11,28.7c-1.6,0.7-2.6,2.2-2.6,3.9v94.9 c0,1.4,0.7,2.8,1.9,3.6c0.7,0.5,1.5,0.7,2.3,0.7c0.6,0,1.1-0.1,1.7-0.3l38.8-16.8v27c0,1.4,0.7,2.8,1.9,3.6 c0.7,0.5,1.5,0.7,2.3,0.7c0.6,0,1.1-0.1,1.7-0.3l38.8-16.8v27c0,1.4,0.7,2.8,1.9,3.6c0.7,0.5,1.5,0.7,2.3,0.7 c0.6,0,1.1-0.1,1.7-0.3l65.6-28.4C171,130.8,172,129.2,172,127.5z M163.5,124.7l-57.1,24.7v-24.2l18.3-7.9c1.6-0.7,2.6-2.2,2.6-3.9 V64l-8.5,3.7v42.8l-12.4,5.4l-8.5,3.7l-36.2,15.6V111l18.3-7.9c1.6-0.7,2.6-2.2,2.6-3.9V49.8l-8.5,3.7v42.8l-12.4,5.4l-8.5,3.7 L17,121V35.4l57.1-24.7V35l-18.3,7.9c-1.6,0.7-2.6,2.2-2.6,3.9v49.3l8.5-3.7V49.6l12.4-5.4l8.5-3.7l36.2-15.6v24.2l-18.3,7.9 c-1.6,0.7-2.6,2.2-2.6,3.9v49.3l8.5-3.7V63.8l12.4-5.4l8.5-3.7l36.2-15.6V124.7z" style="fill: rgb(8, 8, 32);"/>
  </g>
</svg>